<svg xmlns="http://www.w3.org/2000/svg" viewBox="0 0 1200 880" font-family="'SF Pro Display', 'Segoe UI', system-ui, -apple-system, sans-serif">
  <defs>
    <linearGradient id="bgGrad" x1="0" y1="0" x2="0" y2="1">
      <stop offset="0%" stop-color="#0f1117"/>
      <stop offset="100%" stop-color="#161822"/>
    </linearGradient>
    <linearGradient id="grayG" x1="0" y1="0" x2="1" y2="1"><stop offset="0%" stop-color="#4b5563"/><stop offset="100%" stop-color="#6b7280"/></linearGradient>
    <linearGradient id="blueG" x1="0" y1="0" x2="1" y2="1"><stop offset="0%" stop-color="#2563eb"/><stop offset="100%" stop-color="#3b82f6"/></linearGradient>
    <linearGradient id="cyanG" x1="0" y1="0" x2="1" y2="1"><stop offset="0%" stop-color="#0891b2"/><stop offset="100%" stop-color="#06b6d4"/></linearGradient>
    <linearGradient id="amberG" x1="0" y1="0" x2="1" y2="1"><stop offset="0%" stop-color="#d97706"/><stop offset="100%" stop-color="#f59e0b"/></linearGradient>
    <linearGradient id="purpleG" x1="0" y1="0" x2="1" y2="1"><stop offset="0%" stop-color="#7c3aed"/><stop offset="100%" stop-color="#a855f7"/></linearGradient>
    <linearGradient id="roseG" x1="0" y1="0" x2="1" y2="1"><stop offset="0%" stop-color="#e11d48"/><stop offset="100%" stop-color="#f43f5e"/></linearGradient>
    <linearGradient id="tealG" x1="0" y1="0" x2="1" y2="1"><stop offset="0%" stop-color="#0d9488"/><stop offset="100%" stop-color="#14b8a6"/></linearGradient>
    <linearGradient id="greenG" x1="0" y1="0" x2="1" y2="1"><stop offset="0%" stop-color="#059669"/><stop offset="100%" stop-color="#10b981"/></linearGradient>
    <filter id="shadow"><feDropShadow dx="0" dy="2" stdDeviation="4" flood-color="#000" flood-opacity="0.5"/></filter>
    <marker id="mBlue" markerWidth="9" markerHeight="7" refX="8" refY="3.5" orient="auto"><polygon points="0 0, 9 3.5, 0 7" fill="#3b82f6"/></marker>
    <marker id="mCyan" markerWidth="9" markerHeight="7" refX="8" refY="3.5" orient="auto"><polygon points="0 0, 9 3.5, 0 7" fill="#06b6d4"/></marker>
    <marker id="mAmber" markerWidth="9" markerHeight="7" refX="8" refY="3.5" orient="auto"><polygon points="0 0, 9 3.5, 0 7" fill="#f59e0b"/></marker>
    <marker id="mPurple" markerWidth="9" markerHeight="7" refX="8" refY="3.5" orient="auto"><polygon points="0 0, 9 3.5, 0 7" fill="#a855f7"/></marker>
    <marker id="mRose" markerWidth="9" markerHeight="7" refX="8" refY="3.5" orient="auto"><polygon points="0 0, 9 3.5, 0 7" fill="#f43f5e"/></marker>
    <marker id="mTeal" markerWidth="9" markerHeight="7" refX="8" refY="3.5" orient="auto"><polygon points="0 0, 9 3.5, 0 7" fill="#14b8a6"/></marker>
    <marker id="mGreen" markerWidth="9" markerHeight="7" refX="8" refY="3.5" orient="auto"><polygon points="0 0, 9 3.5, 0 7" fill="#10b981"/></marker>
    <marker id="mSlate" markerWidth="9" markerHeight="7" refX="8" refY="3.5" orient="auto"><polygon points="0 0, 9 3.5, 0 7" fill="#64748b"/></marker>
  </defs>

  <rect width="1200" height="880" fill="url(#bgGrad)" rx="12"/>

  <!-- Title -->
  <text x="600" y="44" text-anchor="middle" fill="#f8fafc" font-size="26" font-weight="700" letter-spacing="0.4">Asana Card — Structure, Flow &amp; Seed Skills</text>
  <text x="600" y="67" text-anchor="middle" fill="#94a3b8" font-size="13">Flat-task model: every card is top-level — epic grouping by the Feature field, never by nesting</text>

  <!-- ════════════════ BAND 1 — CARD ANATOMY (left) ════════════════ -->
  <rect x="40" y="92" width="430" height="322" rx="12" fill="#13161f" stroke="#262b38" stroke-width="1"/>
  <text x="60" y="118" fill="#e2e8f0" font-size="14" font-weight="700">Card anatomy</text>
  <text x="170" y="118" fill="#64748b" font-size="9.5">a single top-level Asana task</text>

  <!-- title + description rows -->
  <rect x="58" y="130" width="394" height="24" rx="5" fill="#1b2030" stroke="#2b3344" stroke-width="1"/>
  <text x="68" y="146" font-size="10"><tspan fill="#64748b">Title</tspan><tspan fill="#cbd5e1">  ·  actionable, not vague</tspan></text>
  <rect x="58" y="158" width="394" height="24" rx="5" fill="#1b2030" stroke="#2b3344" stroke-width="1"/>
  <text x="68" y="174" font-size="10"><tspan fill="#64748b">Description</tspan><tspan fill="#cbd5e1">  +  a </tspan><tspan fill="#fca5a5">Source:</tspan><tspan fill="#cbd5e1"> line (provenance)</tspan></text>

  <!-- taxonomy highlight (explicit-x segments — renderer-safe) -->
  <rect x="58" y="188" width="394" height="26" rx="6" fill="#1a1530" stroke="#7c3aed" stroke-width="1.2"/>
  <text y="205" font-size="10" font-weight="700"><tspan x="68" fill="#c4b5fd">Theme</tspan></text>
  <text y="205" font-size="10"><tspan x="108" fill="#64748b">▸</tspan></text>
  <text y="205" font-size="10" font-weight="700"><tspan x="122" fill="#67e8f9">Feature</tspan></text>
  <text y="205" font-size="10"><tspan x="172" fill="#64748b">▸</tspan></text>
  <text y="205" font-size="10"><tspan x="186" fill="#cbd5e1">Task</tspan></text>
  <text y="205" font-size="9.5"><tspan x="222" fill="#64748b">— all top-level · no subtasks</tspan></text>

  <!-- 8 custom fields (label left, type right-aligned) -->
  <text x="60" y="234" fill="#94a3b8" font-size="10" font-weight="600">8 standard custom fields</text>
  <!-- col 1 -->
  <g font-size="9.5">
    <rect x="58" y="242" width="188" height="24" rx="5" fill="#1b2030" stroke="#2b3344"/><text x="68" y="258" fill="#cbd5e1">Fraction Priority</text><text x="238" y="258" text-anchor="end" fill="#64748b">enum</text>
    <rect x="58" y="272" width="188" height="24" rx="5" fill="#1b2030" stroke="#2b3344"/><text x="68" y="288" fill="#cbd5e1">Story Points</text><text x="238" y="288" text-anchor="end" fill="#64748b">number</text>
    <rect x="58" y="302" width="188" height="24" rx="5" fill="#1b2030" stroke="#2b3344"/><text x="68" y="318" fill="#cbd5e1">Sprint</text><text x="238" y="318" text-anchor="end" fill="#64748b">multi-enum</text>
    <rect x="58" y="332" width="188" height="24" rx="5" fill="#161a2e" stroke="#7c3aed" stroke-width="1.2"/><text x="68" y="348" fill="#e9d5ff" font-weight="600">Theme</text><text x="238" y="348" text-anchor="end" fill="#a78bfa">text · free</text>
  </g>
  <!-- col 2 -->
  <g font-size="9.5">
    <rect x="252" y="242" width="200" height="24" rx="5" fill="#1b2030" stroke="#2b3344"/><text x="262" y="258" fill="#cbd5e1">Fraction Task Type</text><text x="444" y="258" text-anchor="end" fill="#64748b">enum</text>
    <rect x="252" y="272" width="200" height="24" rx="5" fill="#1b2030" stroke="#2b3344"/><text x="262" y="288" fill="#cbd5e1">Release</text><text x="444" y="288" text-anchor="end" fill="#64748b">enum</text>
    <rect x="252" y="302" width="200" height="24" rx="5" fill="#1b2030" stroke="#2b3344"/><text x="262" y="318" fill="#cbd5e1">Task Progress</text><text x="444" y="318" text-anchor="end" fill="#64748b">enum</text>
    <rect x="252" y="332" width="200" height="24" rx="5" fill="#10212a" stroke="#06b6d4" stroke-width="1.2"/><text x="262" y="348" fill="#cffafe" font-weight="600">Feature</text><text x="444" y="348" text-anchor="end" fill="#22d3ee">text · Epic</text>
  </g>
  <!-- audit footer -->
  <text x="58" y="378" width="394" font-size="9"><tspan fill="#64748b">audit markers: </tspan><tspan fill="#86efac">devhawk:add-card</tspan><tspan fill="#64748b"> tag  +  </tspan><tspan fill="#86efac">Created-By:</tspan><tspan fill="#64748b"> footer</tspan></text>
  <text x="58" y="398" fill="#475569" font-size="9">workspace fields, attached once · required from BACKLOG onward</text>

  <!-- ════════════════ BAND 1 — FLAT MODEL (right) ════════════════ -->
  <rect x="500" y="92" width="660" height="322" rx="12" fill="#13161f" stroke="#262b38" stroke-width="1"/>
  <text x="520" y="118" fill="#e2e8f0" font-size="14" font-weight="700">The flat-task model</text>
  <text x="652" y="118" fill="#64748b" font-size="9.5">hierarchy is data (fields), not structure (parent/child)</text>

  <!-- taxonomy chips Theme -> Feature -> Task -->
  <rect x="520" y="138" width="180" height="56" rx="9" fill="#1a1530" stroke="#a855f7" stroke-width="1.6" filter="url(#shadow)"/>
  <text x="610" y="162" text-anchor="middle" fill="#fff" font-size="12" font-weight="700">THEME</text>
  <text x="610" y="180" text-anchor="middle" fill="#c4b5fd" font-size="9">project theme · text</text>
  <path d="M 704 166 H 736" stroke="#a855f7" stroke-width="2" marker-end="url(#mPurple)"/>
  <rect x="740" y="138" width="180" height="56" rx="9" fill="#10212a" stroke="#06b6d4" stroke-width="1.6" filter="url(#shadow)"/>
  <text x="830" y="162" text-anchor="middle" fill="#fff" font-size="12" font-weight="700">FEATURE</text>
  <text x="830" y="180" text-anchor="middle" fill="#67e8f9" font-size="9">Epic · free text</text>
  <path d="M 924 166 H 956" stroke="#06b6d4" stroke-width="2" marker-end="url(#mCyan)"/>
  <rect x="960" y="138" width="180" height="56" rx="9" fill="#1b2030" stroke="#64748b" stroke-width="1.6" filter="url(#shadow)"/>
  <text x="1050" y="162" text-anchor="middle" fill="#fff" font-size="12" font-weight="700">TASK</text>
  <text x="1050" y="180" text-anchor="middle" fill="#94a3b8" font-size="9">top-level · movable</text>
  <text x="830" y="212" text-anchor="middle" fill="#64748b" font-size="9">a card carries a Theme + a Feature — it does not nest under them</text>

  <!-- no-subtask rule -->
  <rect x="520" y="222" width="620" height="66" rx="9" fill="#231016" stroke="#f43f5e" stroke-width="1.2"/>
  <text x="536" y="243" fill="#fecdd3" font-size="11.5" font-weight="700">✗  No subtasks for workflow items</text>
  <text x="536" y="262" fill="#cbd5e1" font-size="9.5">Asana can't move a subtask between board sections — it is frozen under its parent and</text>
  <text x="536" y="277" fill="#cbd5e1" font-size="9.5">can never flow INBOX → DONE. So every workflow task is a direct member of a section.</text>

  <!-- elevation 2-step (mono + rest split with explicit x) -->
  <rect x="520" y="298" width="620" height="100" rx="9" fill="#0f2018" stroke="#10b981" stroke-width="1.2"/>
  <text x="536" y="320" fill="#a7f3d0" font-size="11.5" font-weight="700">↥  Elevation — non-destructive (keeps gid, comments, attachments)</text>
  <circle cx="546" cy="342" r="9" fill="#047857"/><text x="546" y="346" text-anchor="middle" fill="#fff" font-size="10" font-weight="700">1</text>
  <text x="562" y="346" font-size="10" font-family="ui-monospace, 'SF Mono', Menlo, monospace" fill="#86efac">POST /tasks/{id}/addProject</text>
  <text x="762" y="346" font-size="10" fill="#cbd5e1">{ project, section }  → board-visible</text>
  <circle cx="546" cy="366" r="9" fill="#047857"/><text x="546" y="370" text-anchor="middle" fill="#fff" font-size="10" font-weight="700">2</text>
  <text x="562" y="370" font-size="10" font-family="ui-monospace, 'SF Mono', Menlo, monospace" fill="#86efac">POST /tasks/{id}/setParent</text>
  <text x="762" y="370" font-size="10" fill="#cbd5e1">{ parent: null }  → detach</text>
  <text x="536" y="390" fill="#64748b" font-size="9">order is load-bearing · then copy parent's Feature/Theme · tool: asana_ops.py --elevate-subtasks</text>

  <!-- ════════════════ BAND 2 — BOARD FLOW ════════════════ -->
  <text x="60" y="452" fill="#e2e8f0" font-size="14" font-weight="700">Board flow</text>
  <text x="174" y="452" fill="#64748b" font-size="10">— 8 sections · every card top-level &amp; freely movable</text>

  <!-- validation zones behind chips -->
  <rect x="38" y="470" width="124" height="78" rx="9" fill="#1f2430" opacity="0.45"/>
  <text x="100" y="484" text-anchor="middle" fill="#94a3b8" font-size="8.5">light validation</text>
  <rect x="174" y="470" width="986" height="78" rx="9" fill="#16233a" opacity="0.45"/>
  <text x="667" y="484" text-anchor="middle" fill="#93c5fd" font-size="8.5">full fields required — 8 incl. Theme + Feature · owner + sprint from TODO on</text>

  <!-- section chips: centers 100,240,380,520,660,800,940,1080 -->
  <!-- INBOX -->
  <rect x="40" y="498" width="120" height="46" rx="8" fill="#171a24" stroke="#6b7280" stroke-width="1.5"/><rect x="40" y="498" width="120" height="15" rx="8" fill="url(#grayG)"/><rect x="40" y="506" width="120" height="7" fill="url(#grayG)"/>
  <text x="100" y="510" text-anchor="middle" fill="#fff" font-size="9.5" font-weight="700">INBOX</text><text x="100" y="535" text-anchor="middle" fill="#9ca3af" font-size="8.5">unvalidated idea</text>
  <!-- gate -->
  <path d="M 170 514 l 7 7 l -7 7 l -7 -7 z" fill="#1f2937" stroke="#f59e0b" stroke-width="1.3"/>
  <text x="170" y="497" text-anchor="middle" fill="#fbbf24" font-size="7.5">gate</text>
  <text x="170" y="558" text-anchor="middle" fill="#a16207" font-size="7">discussion</text>
  <!-- BACKLOG -->
  <rect x="180" y="498" width="120" height="46" rx="8" fill="#171a24" stroke="#3b82f6" stroke-width="1.5"/><rect x="180" y="498" width="120" height="15" rx="8" fill="url(#blueG)"/><rect x="180" y="506" width="120" height="7" fill="url(#blueG)"/>
  <text x="240" y="510" text-anchor="middle" fill="#fff" font-size="9.5" font-weight="700">BACKLOG</text><text x="240" y="535" text-anchor="middle" fill="#93c5fd" font-size="8.5">validated</text>
  <path d="M 302 521 H 318" stroke="#64748b" stroke-width="1.8" marker-end="url(#mSlate)"/>
  <!-- TODO -->
  <rect x="320" y="498" width="120" height="46" rx="8" fill="#171a24" stroke="#06b6d4" stroke-width="1.5"/><rect x="320" y="498" width="120" height="15" rx="8" fill="url(#cyanG)"/><rect x="320" y="506" width="120" height="7" fill="url(#cyanG)"/>
  <text x="380" y="510" text-anchor="middle" fill="#fff" font-size="9.5" font-weight="700">TODO</text><text x="380" y="535" text-anchor="middle" fill="#67e8f9" font-size="8.5">sprint-ready</text>
  <path d="M 442 521 H 458" stroke="#64748b" stroke-width="1.8" marker-end="url(#mSlate)"/>
  <!-- WIP -->
  <rect x="460" y="498" width="120" height="46" rx="8" fill="#171a24" stroke="#f59e0b" stroke-width="1.5"/><rect x="460" y="498" width="120" height="15" rx="8" fill="url(#amberG)"/><rect x="460" y="506" width="120" height="7" fill="url(#amberG)"/>
  <text x="520" y="510" text-anchor="middle" fill="#fff" font-size="9.5" font-weight="700">WIP</text><text x="520" y="535" text-anchor="middle" fill="#fcd34d" font-size="8.5">in progress</text>
  <path d="M 582 521 H 598" stroke="#64748b" stroke-width="1.8" marker-end="url(#mSlate)"/>
  <!-- REVIEW -->
  <rect x="600" y="498" width="120" height="46" rx="8" fill="#171a24" stroke="#a855f7" stroke-width="1.5"/><rect x="600" y="498" width="120" height="15" rx="8" fill="url(#purpleG)"/><rect x="600" y="506" width="120" height="7" fill="url(#purpleG)"/>
  <text x="660" y="510" text-anchor="middle" fill="#fff" font-size="9.5" font-weight="700">REVIEW</text><text x="660" y="535" text-anchor="middle" fill="#c4b5fd" font-size="8.5">PR open</text>
  <path d="M 722 521 H 738" stroke="#64748b" stroke-width="1.8" marker-end="url(#mSlate)"/>
  <!-- TESTING -->
  <rect x="740" y="498" width="120" height="46" rx="8" fill="#171a24" stroke="#f43f5e" stroke-width="1.5"/><rect x="740" y="498" width="120" height="15" rx="8" fill="url(#roseG)"/><rect x="740" y="506" width="120" height="7" fill="url(#roseG)"/>
  <text x="800" y="510" text-anchor="middle" fill="#fff" font-size="9.5" font-weight="700">TESTING</text><text x="800" y="535" text-anchor="middle" fill="#fda4af" font-size="8.5">merged · QA</text>
  <path d="M 862 521 H 878" stroke="#64748b" stroke-width="1.8" marker-end="url(#mSlate)"/>
  <!-- RELEASE -->
  <rect x="880" y="498" width="120" height="46" rx="8" fill="#171a24" stroke="#14b8a6" stroke-width="1.5"/><rect x="880" y="498" width="120" height="15" rx="8" fill="url(#tealG)"/><rect x="880" y="506" width="120" height="7" fill="url(#tealG)"/>
  <text x="940" y="510" text-anchor="middle" fill="#fff" font-size="9.5" font-weight="700">RELEASE</text><text x="940" y="535" text-anchor="middle" fill="#5eead4" font-size="8.5">tested</text>
  <path d="M 1002 521 H 1018" stroke="#64748b" stroke-width="1.8" marker-end="url(#mSlate)"/>
  <!-- DONE -->
  <rect x="1020" y="498" width="120" height="46" rx="8" fill="#171a24" stroke="#10b981" stroke-width="1.5"/><rect x="1020" y="498" width="120" height="15" rx="8" fill="url(#greenG)"/><rect x="1020" y="506" width="120" height="7" fill="url(#greenG)"/>
  <text x="1080" y="510" text-anchor="middle" fill="#fff" font-size="9.5" font-weight="700">DONE</text><text x="1080" y="535" text-anchor="middle" fill="#6ee7b7" font-size="8.5">shipped</text>

  <!-- ════════════════ BAND 3 — SEED SKILLS BY STAGE ════════════════ -->
  <text x="60" y="600" fill="#e2e8f0" font-size="14" font-weight="700">Seed skills by stage</text>
  <text x="208" y="600" fill="#64748b" font-size="10">— which skill drives each transition</text>

  <!-- connectors: skill chip top (y=632) up to stage chip bottom (y=544) -->
  <path d="M 114 632 C 110 600, 104 570, 100 546" fill="none" stroke="#3b82f6" stroke-width="1.5" marker-end="url(#mBlue)" opacity="0.85"/>
  <path d="M 130 632 C 170 600, 215 570, 238 546" fill="none" stroke="#3b82f6" stroke-width="1.5" marker-end="url(#mBlue)" opacity="0.85"/>
  <path d="M 286 632 C 320 600, 360 570, 380 546" fill="none" stroke="#06b6d4" stroke-width="1.5" marker-end="url(#mCyan)" opacity="0.85"/>
  <path d="M 300 632 C 400 598, 480 568, 516 546" fill="none" stroke="#06b6d4" stroke-width="1.5" marker-end="url(#mCyan)" opacity="0.55"/>
  <path d="M 434 632 C 460 600, 500 570, 518 546" fill="none" stroke="#f59e0b" stroke-width="1.5" marker-end="url(#mAmber)" opacity="0.85"/>
  <path d="M 594 632 C 570 600, 540 570, 524 546" fill="none" stroke="#a855f7" stroke-width="1.5" marker-end="url(#mPurple)" opacity="0.85"/>
  <path d="M 740 632 C 660 600, 580 570, 528 546" fill="none" stroke="#10b981" stroke-width="1.5" marker-end="url(#mGreen)" opacity="0.55"/>
  <path d="M 760 632 C 720 600, 680 570, 660 546" fill="none" stroke="#10b981" stroke-width="1.5" marker-end="url(#mGreen)" opacity="0.85"/>
  <path d="M 914 632 C 820 598, 710 568, 668 546" fill="none" stroke="#f43f5e" stroke-width="1.5" marker-end="url(#mRose)" opacity="0.85"/>
  <path d="M 1060 632 C 1000 600, 960 570, 942 546" fill="none" stroke="#14b8a6" stroke-width="1.5" marker-end="url(#mTeal)" opacity="0.85"/>
  <path d="M 1086 632 C 1090 600, 1086 570, 1080 546" fill="none" stroke="#14b8a6" stroke-width="1.5" marker-end="url(#mTeal)" opacity="0.85"/>

  <!-- skill chips: centers 114,274,434,594,754,914,1074 width 148 -->
  <rect x="40" y="632" width="148" height="62" rx="9" fill="#161b2b" stroke="#3b82f6" stroke-width="1.5" filter="url(#shadow)"/>
  <text x="114" y="652" text-anchor="middle" fill="#fff" font-size="11" font-weight="700">add-card</text>
  <text x="114" y="668" text-anchor="middle" fill="#93c5fd" font-size="8">INBOX / BACKLOG</text>
  <text x="114" y="683" text-anchor="middle" fill="#94a3b8" font-size="8">Feature · source · audit tag</text>

  <rect x="200" y="632" width="148" height="62" rx="9" fill="#10212a" stroke="#06b6d4" stroke-width="1.5" filter="url(#shadow)"/>
  <text x="274" y="652" text-anchor="middle" fill="#fff" font-size="11" font-weight="700">next-task</text>
  <text x="274" y="668" text-anchor="middle" fill="#67e8f9" font-size="8">TODO → WIP</text>
  <text x="274" y="683" text-anchor="middle" fill="#94a3b8" font-size="8">assign · branch · plan</text>

  <rect x="360" y="632" width="148" height="62" rx="9" fill="#231a10" stroke="#f59e0b" stroke-width="1.5" filter="url(#shadow)"/>
  <text x="434" y="652" text-anchor="middle" fill="#fff" font-size="11" font-weight="700">feature-build</text>
  <text x="434" y="668" text-anchor="middle" fill="#fcd34d" font-size="8">WIP</text>
  <text x="434" y="683" text-anchor="middle" fill="#94a3b8" font-size="8">schema · actions · UI · jobs</text>

  <rect x="520" y="632" width="148" height="62" rx="9" fill="#1e1530" stroke="#a855f7" stroke-width="1.5" filter="url(#shadow)"/>
  <text x="594" y="652" text-anchor="middle" fill="#fff" font-size="11" font-weight="700">test-gen</text>
  <text x="594" y="668" text-anchor="middle" fill="#c4b5fd" font-size="8">WIP</text>
  <text x="594" y="683" text-anchor="middle" fill="#94a3b8" font-size="8">unit · integration · E2E</text>

  <rect x="680" y="632" width="148" height="62" rx="9" fill="#0f2018" stroke="#10b981" stroke-width="1.5" filter="url(#shadow)"/>
  <text x="754" y="652" text-anchor="middle" fill="#fff" font-size="11" font-weight="700">create-pr</text>
  <text x="754" y="668" text-anchor="middle" fill="#6ee7b7" font-size="8">WIP → REVIEW</text>
  <text x="754" y="683" text-anchor="middle" fill="#94a3b8" font-size="8">rebase · pr:audit · move card</text>

  <rect x="840" y="632" width="148" height="62" rx="9" fill="#231016" stroke="#f43f5e" stroke-width="1.5" filter="url(#shadow)"/>
  <text x="914" y="652" text-anchor="middle" fill="#fff" font-size="11" font-weight="700">pr-review</text>
  <text x="914" y="668" text-anchor="middle" fill="#fda4af" font-size="8">REVIEW</text>
  <text x="914" y="683" text-anchor="middle" fill="#94a3b8" font-size="8">lint · audit · /code-review</text>

  <rect x="1000" y="632" width="148" height="62" rx="9" fill="#0f201d" stroke="#14b8a6" stroke-width="1.5" filter="url(#shadow)"/>
  <text x="1074" y="652" text-anchor="middle" fill="#fff" font-size="11" font-weight="700">card-done</text>
  <text x="1074" y="668" text-anchor="middle" fill="#5eead4" font-size="8">RELEASE / DONE</text>
  <text x="1074" y="683" text-anchor="middle" fill="#94a3b8" font-size="8">Feature rollup · summary</text>

  <!-- ════════════════ FOUNDATION — bootstrap + hygiene (cross-cutting) ════════════════ -->
  <rect x="40" y="724" width="1120" height="60" rx="10" fill="#15131f" stroke="#7c3aed" stroke-width="1.2"/>
  <rect x="40" y="724" width="6" height="60" rx="3" fill="url(#purpleG)"/>
  <text x="64" y="746" fill="#e9d5ff" font-size="12" font-weight="700">asana-bootstrap</text>
  <text x="186" y="746" fill="#cbd5e1" font-size="10">creates the structure — required admins · 8 custom fields · 8 sections · initial Release option</text>
  <text x="64" y="768" fill="#a7f3d0" font-size="12" font-weight="700">asana-hygiene</text>
  <text x="186" y="768" fill="#cbd5e1" font-size="10">maintains it — elevate-subtasks · missing-Feature · dedup · field backfill · stale-INBOX · source attribution</text>
  <text x="1148" y="757" text-anchor="end" fill="#64748b" font-size="9">cross-cutting ↑ all stages</text>

  <!-- footer legend -->
  <line x1="40" y1="806" x2="1160" y2="806" stroke="#262b38" stroke-width="1"/>
  <circle cx="52" cy="826" r="5" fill="#a855f7"/><text x="62" y="830" fill="#94a3b8" font-size="9.5">Theme — project theme (free text)</text>
  <circle cx="262" cy="826" r="5" fill="#06b6d4"/><text x="272" y="830" fill="#94a3b8" font-size="9.5">Feature — Epic (free text)</text>
  <path d="M 474 821 l 7 7 l -7 7 l -7 -7 z" fill="#1f2937" stroke="#f59e0b" stroke-width="1.2"/><text x="488" y="830" fill="#94a3b8" font-size="9.5">stakeholder gate (INBOX → BACKLOG)</text>
  <text x="1160" y="830" text-anchor="end" fill="#475569" font-size="9">canonical: docs/asana-best-practices.md → "Task structure"</text>
</svg>
